<mxfile host="app.diagrams.net" modified="2021-05-12T13:57:22.346Z" agent="5.0 (Windows NT 10.0; Win64; x64) AppleWebKit/537.36 (KHTML, like Gecko) Chrome/90.0.4430.93 Safari/537.36" etag="03P1F8RjQUugslGP6Hit" version="14.5.10" type="github">
  <diagram id="C5RBs43oDa-KdzZeNtuy" name="Page-1">
    <mxGraphModel dx="1408" dy="748" grid="0" gridSize="10" guides="1" tooltips="1" connect="1" arrows="1" fold="1" page="0" pageScale="1" pageWidth="827" pageHeight="1169" math="0" shadow="1">
      <root>
        <mxCell id="WIyWlLk6GJQsqaUBKTNV-0" />
        <mxCell id="WIyWlLk6GJQsqaUBKTNV-1" parent="WIyWlLk6GJQsqaUBKTNV-0" />
        <mxCell id="WIyWlLk6GJQsqaUBKTNV-2" value="" style="rounded=0;html=1;jettySize=auto;orthogonalLoop=1;fontSize=11;endArrow=block;endFill=0;endSize=8;strokeWidth=1;shadow=0;labelBackgroundColor=none;edgeStyle=orthogonalEdgeStyle;" parent="WIyWlLk6GJQsqaUBKTNV-1" source="WIyWlLk6GJQsqaUBKTNV-3" target="WIyWlLk6GJQsqaUBKTNV-6" edge="1">
          <mxGeometry relative="1" as="geometry" />
        </mxCell>
        <mxCell id="WIyWlLk6GJQsqaUBKTNV-3" value="Lamp doesn&#39;t work" style="rounded=1;whiteSpace=wrap;html=1;fontSize=12;glass=0;strokeWidth=1;shadow=0;" parent="WIyWlLk6GJQsqaUBKTNV-1" vertex="1">
          <mxGeometry x="40" y="211" width="120" height="40" as="geometry" />
        </mxCell>
        <mxCell id="WIyWlLk6GJQsqaUBKTNV-4" value="Yes" style="rounded=0;html=1;jettySize=auto;orthogonalLoop=1;fontSize=11;endArrow=block;endFill=0;endSize=8;strokeWidth=1;shadow=0;labelBackgroundColor=none;edgeStyle=orthogonalEdgeStyle;" parent="WIyWlLk6GJQsqaUBKTNV-1" source="WIyWlLk6GJQsqaUBKTNV-6" target="WIyWlLk6GJQsqaUBKTNV-10" edge="1">
          <mxGeometry y="20" relative="1" as="geometry">
            <mxPoint as="offset" />
          </mxGeometry>
        </mxCell>
        <mxCell id="WIyWlLk6GJQsqaUBKTNV-5" value="No" style="edgeStyle=orthogonalEdgeStyle;rounded=0;html=1;jettySize=auto;orthogonalLoop=1;fontSize=11;endArrow=block;endFill=0;endSize=8;strokeWidth=1;shadow=0;labelBackgroundColor=none;" parent="WIyWlLk6GJQsqaUBKTNV-1" source="WIyWlLk6GJQsqaUBKTNV-6" target="WIyWlLk6GJQsqaUBKTNV-7" edge="1">
          <mxGeometry y="10" relative="1" as="geometry">
            <mxPoint as="offset" />
          </mxGeometry>
        </mxCell>
        <mxCell id="WIyWlLk6GJQsqaUBKTNV-6" value="Lamp&lt;br&gt;plugged in?" style="rhombus;whiteSpace=wrap;html=1;shadow=0;fontFamily=Helvetica;fontSize=12;align=center;strokeWidth=1;spacing=6;spacingTop=-4;" parent="WIyWlLk6GJQsqaUBKTNV-1" vertex="1">
          <mxGeometry x="50" y="301" width="100" height="80" as="geometry" />
        </mxCell>
        <mxCell id="WIyWlLk6GJQsqaUBKTNV-7" value="Plug in lamp" style="rounded=1;whiteSpace=wrap;html=1;fontSize=12;glass=0;strokeWidth=1;shadow=0;" parent="WIyWlLk6GJQsqaUBKTNV-1" vertex="1">
          <mxGeometry x="200" y="321" width="120" height="40" as="geometry" />
        </mxCell>
        <mxCell id="WIyWlLk6GJQsqaUBKTNV-8" value="No" style="rounded=0;html=1;jettySize=auto;orthogonalLoop=1;fontSize=11;endArrow=block;endFill=0;endSize=8;strokeWidth=1;shadow=0;labelBackgroundColor=none;edgeStyle=orthogonalEdgeStyle;" parent="WIyWlLk6GJQsqaUBKTNV-1" source="WIyWlLk6GJQsqaUBKTNV-10" target="WIyWlLk6GJQsqaUBKTNV-11" edge="1">
          <mxGeometry x="0.3333" y="20" relative="1" as="geometry">
            <mxPoint as="offset" />
          </mxGeometry>
        </mxCell>
        <mxCell id="WIyWlLk6GJQsqaUBKTNV-9" value="Yes" style="edgeStyle=orthogonalEdgeStyle;rounded=0;html=1;jettySize=auto;orthogonalLoop=1;fontSize=11;endArrow=block;endFill=0;endSize=8;strokeWidth=1;shadow=0;labelBackgroundColor=none;" parent="WIyWlLk6GJQsqaUBKTNV-1" source="WIyWlLk6GJQsqaUBKTNV-10" target="WIyWlLk6GJQsqaUBKTNV-12" edge="1">
          <mxGeometry y="10" relative="1" as="geometry">
            <mxPoint as="offset" />
          </mxGeometry>
        </mxCell>
        <mxCell id="WIyWlLk6GJQsqaUBKTNV-10" value="Bulb&lt;br&gt;burned out?" style="rhombus;whiteSpace=wrap;html=1;shadow=0;fontFamily=Helvetica;fontSize=12;align=center;strokeWidth=1;spacing=6;spacingTop=-4;" parent="WIyWlLk6GJQsqaUBKTNV-1" vertex="1">
          <mxGeometry x="50" y="421" width="100" height="80" as="geometry" />
        </mxCell>
        <mxCell id="WIyWlLk6GJQsqaUBKTNV-11" value="Repair Lamp" style="rounded=1;whiteSpace=wrap;html=1;fontSize=12;glass=0;strokeWidth=1;shadow=0;" parent="WIyWlLk6GJQsqaUBKTNV-1" vertex="1">
          <mxGeometry x="40" y="561" width="120" height="40" as="geometry" />
        </mxCell>
        <mxCell id="WIyWlLk6GJQsqaUBKTNV-12" value="Replace Bulb" style="rounded=1;whiteSpace=wrap;html=1;fontSize=12;glass=0;strokeWidth=1;shadow=0;" parent="WIyWlLk6GJQsqaUBKTNV-1" vertex="1">
          <mxGeometry x="200" y="441" width="120" height="40" as="geometry" />
        </mxCell>
        <mxCell id="Zg1x8N40QmGfaq8mfe-Y-34" style="edgeStyle=orthogonalEdgeStyle;rounded=0;orthogonalLoop=1;jettySize=auto;html=1;entryX=0.5;entryY=0;entryDx=0;entryDy=0;fontSize=18;exitX=0.5;exitY=1;exitDx=0;exitDy=0;" edge="1" parent="WIyWlLk6GJQsqaUBKTNV-1" source="Zg1x8N40QmGfaq8mfe-Y-0" target="Zg1x8N40QmGfaq8mfe-Y-2">
          <mxGeometry relative="1" as="geometry" />
        </mxCell>
        <mxCell id="Zg1x8N40QmGfaq8mfe-Y-35" style="edgeStyle=orthogonalEdgeStyle;rounded=0;orthogonalLoop=1;jettySize=auto;html=1;entryX=0.5;entryY=0;entryDx=0;entryDy=0;fontSize=18;exitX=0.5;exitY=1;exitDx=0;exitDy=0;" edge="1" parent="WIyWlLk6GJQsqaUBKTNV-1" source="Zg1x8N40QmGfaq8mfe-Y-0" target="Zg1x8N40QmGfaq8mfe-Y-23">
          <mxGeometry relative="1" as="geometry" />
        </mxCell>
        <mxCell id="Zg1x8N40QmGfaq8mfe-Y-39" style="edgeStyle=orthogonalEdgeStyle;rounded=0;orthogonalLoop=1;jettySize=auto;html=1;fontSize=18;exitX=0.5;exitY=1;exitDx=0;exitDy=0;" edge="1" parent="WIyWlLk6GJQsqaUBKTNV-1" source="Zg1x8N40QmGfaq8mfe-Y-0" target="Zg1x8N40QmGfaq8mfe-Y-3">
          <mxGeometry relative="1" as="geometry" />
        </mxCell>
        <mxCell id="Zg1x8N40QmGfaq8mfe-Y-40" style="edgeStyle=orthogonalEdgeStyle;rounded=0;orthogonalLoop=1;jettySize=auto;html=1;entryX=0.5;entryY=0;entryDx=0;entryDy=0;fontSize=18;exitX=0.5;exitY=1;exitDx=0;exitDy=0;" edge="1" parent="WIyWlLk6GJQsqaUBKTNV-1" source="Zg1x8N40QmGfaq8mfe-Y-0" target="Zg1x8N40QmGfaq8mfe-Y-1">
          <mxGeometry relative="1" as="geometry" />
        </mxCell>
        <mxCell id="Zg1x8N40QmGfaq8mfe-Y-72" style="edgeStyle=orthogonalEdgeStyle;rounded=0;orthogonalLoop=1;jettySize=auto;html=1;entryX=0.5;entryY=0;entryDx=0;entryDy=0;fontSize=15;exitX=0.5;exitY=1;exitDx=0;exitDy=0;" edge="1" parent="WIyWlLk6GJQsqaUBKTNV-1" source="Zg1x8N40QmGfaq8mfe-Y-0" target="Zg1x8N40QmGfaq8mfe-Y-67">
          <mxGeometry relative="1" as="geometry" />
        </mxCell>
        <mxCell id="Zg1x8N40QmGfaq8mfe-Y-0" value="&lt;font style=&quot;font-size: 18px&quot;&gt;Web蜜罐溯源系统&lt;/font&gt;" style="rounded=1;whiteSpace=wrap;html=1;" vertex="1" parent="WIyWlLk6GJQsqaUBKTNV-1">
          <mxGeometry x="1089" y="179" width="164" height="58" as="geometry" />
        </mxCell>
        <mxCell id="Zg1x8N40QmGfaq8mfe-Y-41" style="edgeStyle=orthogonalEdgeStyle;rounded=0;orthogonalLoop=1;jettySize=auto;html=1;entryX=0.5;entryY=0;entryDx=0;entryDy=0;fontSize=18;" edge="1" parent="WIyWlLk6GJQsqaUBKTNV-1" source="Zg1x8N40QmGfaq8mfe-Y-1" target="Zg1x8N40QmGfaq8mfe-Y-10">
          <mxGeometry relative="1" as="geometry" />
        </mxCell>
        <mxCell id="Zg1x8N40QmGfaq8mfe-Y-42" style="edgeStyle=orthogonalEdgeStyle;rounded=0;orthogonalLoop=1;jettySize=auto;html=1;entryX=0.5;entryY=0;entryDx=0;entryDy=0;fontSize=18;" edge="1" parent="WIyWlLk6GJQsqaUBKTNV-1" source="Zg1x8N40QmGfaq8mfe-Y-1" target="Zg1x8N40QmGfaq8mfe-Y-11">
          <mxGeometry relative="1" as="geometry" />
        </mxCell>
        <mxCell id="Zg1x8N40QmGfaq8mfe-Y-43" style="edgeStyle=orthogonalEdgeStyle;rounded=0;orthogonalLoop=1;jettySize=auto;html=1;entryX=0.5;entryY=0;entryDx=0;entryDy=0;fontSize=18;exitX=0.5;exitY=1;exitDx=0;exitDy=0;" edge="1" parent="WIyWlLk6GJQsqaUBKTNV-1" source="Zg1x8N40QmGfaq8mfe-Y-1" target="Zg1x8N40QmGfaq8mfe-Y-8">
          <mxGeometry relative="1" as="geometry" />
        </mxCell>
        <mxCell id="Zg1x8N40QmGfaq8mfe-Y-44" style="edgeStyle=orthogonalEdgeStyle;rounded=0;orthogonalLoop=1;jettySize=auto;html=1;entryX=0.5;entryY=0;entryDx=0;entryDy=0;fontSize=18;exitX=0.5;exitY=1;exitDx=0;exitDy=0;" edge="1" parent="WIyWlLk6GJQsqaUBKTNV-1" source="Zg1x8N40QmGfaq8mfe-Y-1" target="Zg1x8N40QmGfaq8mfe-Y-12">
          <mxGeometry relative="1" as="geometry" />
        </mxCell>
        <mxCell id="Zg1x8N40QmGfaq8mfe-Y-1" value="用户管理模块" style="rounded=1;whiteSpace=wrap;html=1;fontSize=20;" vertex="1" parent="WIyWlLk6GJQsqaUBKTNV-1">
          <mxGeometry x="721" y="335" width="130" height="50" as="geometry" />
        </mxCell>
        <mxCell id="Zg1x8N40QmGfaq8mfe-Y-19" style="edgeStyle=orthogonalEdgeStyle;rounded=0;orthogonalLoop=1;jettySize=auto;html=1;entryX=0.5;entryY=0;entryDx=0;entryDy=0;fontSize=18;" edge="1" parent="WIyWlLk6GJQsqaUBKTNV-1" source="Zg1x8N40QmGfaq8mfe-Y-2" target="Zg1x8N40QmGfaq8mfe-Y-6">
          <mxGeometry relative="1" as="geometry" />
        </mxCell>
        <mxCell id="Zg1x8N40QmGfaq8mfe-Y-20" style="edgeStyle=orthogonalEdgeStyle;rounded=0;orthogonalLoop=1;jettySize=auto;html=1;entryX=0.5;entryY=0;entryDx=0;entryDy=0;fontSize=18;" edge="1" parent="WIyWlLk6GJQsqaUBKTNV-1" source="Zg1x8N40QmGfaq8mfe-Y-2" target="Zg1x8N40QmGfaq8mfe-Y-7">
          <mxGeometry relative="1" as="geometry" />
        </mxCell>
        <mxCell id="Zg1x8N40QmGfaq8mfe-Y-2" value="接口授权模块" style="rounded=1;whiteSpace=wrap;html=1;fontSize=20;" vertex="1" parent="WIyWlLk6GJQsqaUBKTNV-1">
          <mxGeometry x="1154" y="335" width="130" height="50" as="geometry" />
        </mxCell>
        <mxCell id="Zg1x8N40QmGfaq8mfe-Y-21" style="edgeStyle=orthogonalEdgeStyle;rounded=0;orthogonalLoop=1;jettySize=auto;html=1;entryX=0.5;entryY=0;entryDx=0;entryDy=0;fontSize=18;exitX=0.5;exitY=1;exitDx=0;exitDy=0;" edge="1" parent="WIyWlLk6GJQsqaUBKTNV-1" source="Zg1x8N40QmGfaq8mfe-Y-3" target="Zg1x8N40QmGfaq8mfe-Y-4">
          <mxGeometry relative="1" as="geometry" />
        </mxCell>
        <mxCell id="Zg1x8N40QmGfaq8mfe-Y-22" style="edgeStyle=orthogonalEdgeStyle;rounded=0;orthogonalLoop=1;jettySize=auto;html=1;entryX=0.5;entryY=0;entryDx=0;entryDy=0;fontSize=18;" edge="1" parent="WIyWlLk6GJQsqaUBKTNV-1" source="Zg1x8N40QmGfaq8mfe-Y-3" target="Zg1x8N40QmGfaq8mfe-Y-9">
          <mxGeometry relative="1" as="geometry" />
        </mxCell>
        <mxCell id="Zg1x8N40QmGfaq8mfe-Y-29" style="edgeStyle=orthogonalEdgeStyle;rounded=0;orthogonalLoop=1;jettySize=auto;html=1;entryX=0.5;entryY=0;entryDx=0;entryDy=0;fontSize=18;" edge="1" parent="WIyWlLk6GJQsqaUBKTNV-1" source="Zg1x8N40QmGfaq8mfe-Y-3" target="Zg1x8N40QmGfaq8mfe-Y-28">
          <mxGeometry relative="1" as="geometry" />
        </mxCell>
        <mxCell id="Zg1x8N40QmGfaq8mfe-Y-46" style="edgeStyle=orthogonalEdgeStyle;rounded=0;orthogonalLoop=1;jettySize=auto;html=1;entryX=0.5;entryY=0;entryDx=0;entryDy=0;fontSize=18;exitX=0.5;exitY=1;exitDx=0;exitDy=0;" edge="1" parent="WIyWlLk6GJQsqaUBKTNV-1" source="Zg1x8N40QmGfaq8mfe-Y-3" target="Zg1x8N40QmGfaq8mfe-Y-45">
          <mxGeometry relative="1" as="geometry" />
        </mxCell>
        <mxCell id="Zg1x8N40QmGfaq8mfe-Y-3" value="探针管理模块" style="rounded=1;whiteSpace=wrap;html=1;fontSize=20;" vertex="1" parent="WIyWlLk6GJQsqaUBKTNV-1">
          <mxGeometry x="964" y="335" width="130" height="50" as="geometry" />
        </mxCell>
        <mxCell id="Zg1x8N40QmGfaq8mfe-Y-4" value="探&lt;br style=&quot;font-size: 20px&quot;&gt;针&lt;br style=&quot;font-size: 20px&quot;&gt;修改" style="rounded=1;whiteSpace=wrap;html=1;fontSize=20;rotation=0;" vertex="1" parent="WIyWlLk6GJQsqaUBKTNV-1">
          <mxGeometry x="1038.5" y="490" width="40" height="150" as="geometry" />
        </mxCell>
        <mxCell id="Zg1x8N40QmGfaq8mfe-Y-6" value="授&lt;br style=&quot;font-size: 20px;&quot;&gt;权&lt;br style=&quot;font-size: 20px;&quot;&gt;添&lt;br style=&quot;font-size: 20px;&quot;&gt;加" style="rounded=1;whiteSpace=wrap;html=1;fontSize=20;rotation=0;" vertex="1" parent="WIyWlLk6GJQsqaUBKTNV-1">
          <mxGeometry x="1163.5" y="490" width="40" height="150" as="geometry" />
        </mxCell>
        <mxCell id="Zg1x8N40QmGfaq8mfe-Y-7" value="授&lt;br style=&quot;font-size: 20px;&quot;&gt;权&lt;br style=&quot;font-size: 20px;&quot;&gt;删&lt;br style=&quot;font-size: 20px;&quot;&gt;除" style="rounded=1;whiteSpace=wrap;html=1;fontSize=20;rotation=0;" vertex="1" parent="WIyWlLk6GJQsqaUBKTNV-1">
          <mxGeometry x="1234.5" y="490" width="40" height="150" as="geometry" />
        </mxCell>
        <mxCell id="Zg1x8N40QmGfaq8mfe-Y-8" value="用&lt;br style=&quot;font-size: 20px;&quot;&gt;户&lt;br style=&quot;font-size: 20px;&quot;&gt;信&lt;br style=&quot;font-size: 20px;&quot;&gt;息&lt;br style=&quot;font-size: 20px;&quot;&gt;模&lt;br style=&quot;font-size: 20px;&quot;&gt;块" style="rounded=1;whiteSpace=wrap;html=1;fontSize=20;rotation=0;" vertex="1" parent="WIyWlLk6GJQsqaUBKTNV-1">
          <mxGeometry x="670" y="490" width="40" height="150" as="geometry" />
        </mxCell>
        <mxCell id="Zg1x8N40QmGfaq8mfe-Y-9" value="探&lt;br style=&quot;font-size: 20px;&quot;&gt;针&lt;br style=&quot;font-size: 20px;&quot;&gt;详&lt;br style=&quot;font-size: 20px;&quot;&gt;情" style="rounded=1;whiteSpace=wrap;html=1;fontSize=20;rotation=0;" vertex="1" parent="WIyWlLk6GJQsqaUBKTNV-1">
          <mxGeometry x="924" y="490" width="40" height="150" as="geometry" />
        </mxCell>
        <mxCell id="Zg1x8N40QmGfaq8mfe-Y-10" value="添&lt;br style=&quot;font-size: 20px;&quot;&gt;加&lt;br style=&quot;font-size: 20px;&quot;&gt;用&lt;br style=&quot;font-size: 20px;&quot;&gt;户&lt;br style=&quot;font-size: 20px;&quot;&gt;模&lt;br style=&quot;font-size: 20px;&quot;&gt;块" style="rounded=1;whiteSpace=wrap;html=1;fontSize=20;rotation=0;" vertex="1" parent="WIyWlLk6GJQsqaUBKTNV-1">
          <mxGeometry x="728" y="490" width="40" height="150" as="geometry" />
        </mxCell>
        <mxCell id="Zg1x8N40QmGfaq8mfe-Y-11" value="删&lt;br style=&quot;font-size: 20px;&quot;&gt;除&lt;br style=&quot;font-size: 20px;&quot;&gt;用&lt;br style=&quot;font-size: 20px;&quot;&gt;户&lt;br style=&quot;font-size: 20px;&quot;&gt;模&lt;br style=&quot;font-size: 20px;&quot;&gt;块" style="rounded=1;whiteSpace=wrap;html=1;fontSize=20;rotation=0;" vertex="1" parent="WIyWlLk6GJQsqaUBKTNV-1">
          <mxGeometry x="790" y="490" width="40" height="150" as="geometry" />
        </mxCell>
        <mxCell id="Zg1x8N40QmGfaq8mfe-Y-12" value="修&lt;br style=&quot;font-size: 20px;&quot;&gt;改&lt;br style=&quot;font-size: 20px;&quot;&gt;口&lt;br style=&quot;font-size: 20px;&quot;&gt;令&lt;br style=&quot;font-size: 20px;&quot;&gt;模&lt;br style=&quot;font-size: 20px;&quot;&gt;块" style="rounded=1;whiteSpace=wrap;html=1;fontSize=20;rotation=0;" vertex="1" parent="WIyWlLk6GJQsqaUBKTNV-1">
          <mxGeometry x="851" y="490" width="40" height="150" as="geometry" />
        </mxCell>
        <mxCell id="Zg1x8N40QmGfaq8mfe-Y-26" style="edgeStyle=orthogonalEdgeStyle;rounded=0;orthogonalLoop=1;jettySize=auto;html=1;fontSize=18;" edge="1" parent="WIyWlLk6GJQsqaUBKTNV-1" source="Zg1x8N40QmGfaq8mfe-Y-23" target="Zg1x8N40QmGfaq8mfe-Y-24">
          <mxGeometry relative="1" as="geometry" />
        </mxCell>
        <mxCell id="Zg1x8N40QmGfaq8mfe-Y-27" style="edgeStyle=orthogonalEdgeStyle;rounded=0;orthogonalLoop=1;jettySize=auto;html=1;entryX=0.5;entryY=0;entryDx=0;entryDy=0;fontSize=18;" edge="1" parent="WIyWlLk6GJQsqaUBKTNV-1" source="Zg1x8N40QmGfaq8mfe-Y-23" target="Zg1x8N40QmGfaq8mfe-Y-25">
          <mxGeometry relative="1" as="geometry" />
        </mxCell>
        <mxCell id="Zg1x8N40QmGfaq8mfe-Y-23" value="溯源模块" style="rounded=1;whiteSpace=wrap;html=1;fontSize=20;" vertex="1" parent="WIyWlLk6GJQsqaUBKTNV-1">
          <mxGeometry x="1467" y="335" width="130" height="50" as="geometry" />
        </mxCell>
        <mxCell id="Zg1x8N40QmGfaq8mfe-Y-24" value="基&lt;br style=&quot;font-size: 20px;&quot;&gt;础&lt;br style=&quot;font-size: 20px;&quot;&gt;信&lt;br style=&quot;font-size: 20px;&quot;&gt;息&lt;br style=&quot;font-size: 20px;&quot;&gt;管&lt;br style=&quot;font-size: 20px;&quot;&gt;理" style="rounded=1;whiteSpace=wrap;html=1;fontSize=20;rotation=0;" vertex="1" parent="WIyWlLk6GJQsqaUBKTNV-1">
          <mxGeometry x="1477" y="490" width="40" height="150" as="geometry" />
        </mxCell>
        <mxCell id="Zg1x8N40QmGfaq8mfe-Y-25" value="网&lt;br style=&quot;font-size: 20px&quot;&gt;络&lt;br style=&quot;font-size: 20px&quot;&gt;画&lt;br style=&quot;font-size: 20px&quot;&gt;像&lt;br style=&quot;font-size: 20px&quot;&gt;详情" style="rounded=1;whiteSpace=wrap;html=1;fontSize=20;rotation=0;" vertex="1" parent="WIyWlLk6GJQsqaUBKTNV-1">
          <mxGeometry x="1552" y="490" width="40" height="150" as="geometry" />
        </mxCell>
        <mxCell id="Zg1x8N40QmGfaq8mfe-Y-28" value="探&lt;br style=&quot;font-size: 20px;&quot;&gt;针&lt;br style=&quot;font-size: 20px;&quot;&gt;添&lt;br style=&quot;font-size: 20px;&quot;&gt;加" style="rounded=1;whiteSpace=wrap;html=1;fontSize=20;rotation=0;" vertex="1" parent="WIyWlLk6GJQsqaUBKTNV-1">
          <mxGeometry x="978.5" y="490" width="40" height="150" as="geometry" />
        </mxCell>
        <mxCell id="Zg1x8N40QmGfaq8mfe-Y-45" value="探&lt;br style=&quot;font-size: 20px;&quot;&gt;针&lt;br style=&quot;font-size: 20px;&quot;&gt;删&lt;br style=&quot;font-size: 20px;&quot;&gt;除" style="rounded=1;whiteSpace=wrap;html=1;fontSize=20;rotation=0;" vertex="1" parent="WIyWlLk6GJQsqaUBKTNV-1">
          <mxGeometry x="1099.5" y="490" width="40" height="150" as="geometry" />
        </mxCell>
        <mxCell id="Zg1x8N40QmGfaq8mfe-Y-61" style="edgeStyle=orthogonalEdgeStyle;rounded=0;orthogonalLoop=1;jettySize=auto;html=1;fontSize=18;" edge="1" parent="WIyWlLk6GJQsqaUBKTNV-1" source="Zg1x8N40QmGfaq8mfe-Y-63" target="Zg1x8N40QmGfaq8mfe-Y-64">
          <mxGeometry relative="1" as="geometry" />
        </mxCell>
        <mxCell id="Zg1x8N40QmGfaq8mfe-Y-62" style="edgeStyle=orthogonalEdgeStyle;rounded=0;orthogonalLoop=1;jettySize=auto;html=1;entryX=0.5;entryY=0;entryDx=0;entryDy=0;fontSize=18;" edge="1" parent="WIyWlLk6GJQsqaUBKTNV-1" source="Zg1x8N40QmGfaq8mfe-Y-63" target="Zg1x8N40QmGfaq8mfe-Y-65">
          <mxGeometry relative="1" as="geometry" />
        </mxCell>
        <mxCell id="Zg1x8N40QmGfaq8mfe-Y-63" value="溯源模块" style="rounded=1;whiteSpace=wrap;html=1;fontSize=20;" vertex="1" parent="WIyWlLk6GJQsqaUBKTNV-1">
          <mxGeometry x="2190" y="313" width="130" height="50" as="geometry" />
        </mxCell>
        <mxCell id="Zg1x8N40QmGfaq8mfe-Y-64" value="基&lt;br style=&quot;font-size: 20px;&quot;&gt;础&lt;br style=&quot;font-size: 20px;&quot;&gt;信&lt;br style=&quot;font-size: 20px;&quot;&gt;息&lt;br style=&quot;font-size: 20px;&quot;&gt;管&lt;br style=&quot;font-size: 20px;&quot;&gt;理" style="rounded=1;whiteSpace=wrap;html=1;fontSize=20;rotation=0;" vertex="1" parent="WIyWlLk6GJQsqaUBKTNV-1">
          <mxGeometry x="2200" y="468" width="40" height="150" as="geometry" />
        </mxCell>
        <mxCell id="Zg1x8N40QmGfaq8mfe-Y-65" value="网&lt;br style=&quot;font-size: 20px&quot;&gt;络&lt;br style=&quot;font-size: 20px&quot;&gt;画&lt;br style=&quot;font-size: 20px&quot;&gt;像&lt;br style=&quot;font-size: 20px&quot;&gt;详情" style="rounded=1;whiteSpace=wrap;html=1;fontSize=20;rotation=0;" vertex="1" parent="WIyWlLk6GJQsqaUBKTNV-1">
          <mxGeometry x="2267" y="468" width="40" height="150" as="geometry" />
        </mxCell>
        <mxCell id="Zg1x8N40QmGfaq8mfe-Y-70" style="edgeStyle=orthogonalEdgeStyle;rounded=0;orthogonalLoop=1;jettySize=auto;html=1;fontSize=15;" edge="1" parent="WIyWlLk6GJQsqaUBKTNV-1" source="Zg1x8N40QmGfaq8mfe-Y-67" target="Zg1x8N40QmGfaq8mfe-Y-68">
          <mxGeometry relative="1" as="geometry" />
        </mxCell>
        <mxCell id="Zg1x8N40QmGfaq8mfe-Y-71" style="edgeStyle=orthogonalEdgeStyle;rounded=0;orthogonalLoop=1;jettySize=auto;html=1;entryX=0.5;entryY=0;entryDx=0;entryDy=0;fontSize=15;" edge="1" parent="WIyWlLk6GJQsqaUBKTNV-1" source="Zg1x8N40QmGfaq8mfe-Y-67" target="Zg1x8N40QmGfaq8mfe-Y-69">
          <mxGeometry relative="1" as="geometry" />
        </mxCell>
        <mxCell id="Zg1x8N40QmGfaq8mfe-Y-67" value="钓鱼模块" style="rounded=1;whiteSpace=wrap;html=1;fontSize=20;" vertex="1" parent="WIyWlLk6GJQsqaUBKTNV-1">
          <mxGeometry x="1315" y="335" width="130" height="50" as="geometry" />
        </mxCell>
        <mxCell id="Zg1x8N40QmGfaq8mfe-Y-68" value="蜜标钓鱼" style="rounded=1;whiteSpace=wrap;html=1;fontSize=20;rotation=0;" vertex="1" parent="WIyWlLk6GJQsqaUBKTNV-1">
          <mxGeometry x="1329.5" y="490" width="40" height="150" as="geometry" />
        </mxCell>
        <mxCell id="Zg1x8N40QmGfaq8mfe-Y-69" value="探针钓鱼" style="rounded=1;whiteSpace=wrap;html=1;fontSize=20;rotation=0;" vertex="1" parent="WIyWlLk6GJQsqaUBKTNV-1">
          <mxGeometry x="1390.5" y="490" width="40" height="150" as="geometry" />
        </mxCell>
        <mxCell id="Zg1x8N40QmGfaq8mfe-Y-86" style="edgeStyle=orthogonalEdgeStyle;rounded=0;orthogonalLoop=1;jettySize=auto;html=1;fontSize=15;" edge="1" parent="WIyWlLk6GJQsqaUBKTNV-1" source="Zg1x8N40QmGfaq8mfe-Y-88" target="Zg1x8N40QmGfaq8mfe-Y-89">
          <mxGeometry relative="1" as="geometry" />
        </mxCell>
        <mxCell id="Zg1x8N40QmGfaq8mfe-Y-87" style="edgeStyle=orthogonalEdgeStyle;rounded=0;orthogonalLoop=1;jettySize=auto;html=1;entryX=0.5;entryY=0;entryDx=0;entryDy=0;fontSize=15;" edge="1" parent="WIyWlLk6GJQsqaUBKTNV-1" source="Zg1x8N40QmGfaq8mfe-Y-88" target="Zg1x8N40QmGfaq8mfe-Y-90">
          <mxGeometry relative="1" as="geometry" />
        </mxCell>
        <mxCell id="Zg1x8N40QmGfaq8mfe-Y-88" value="钓鱼模块" style="rounded=1;whiteSpace=wrap;html=1;fontSize=20;" vertex="1" parent="WIyWlLk6GJQsqaUBKTNV-1">
          <mxGeometry x="1877" y="322" width="130" height="50" as="geometry" />
        </mxCell>
        <mxCell id="Zg1x8N40QmGfaq8mfe-Y-89" value="蜜标钓鱼" style="rounded=1;whiteSpace=wrap;html=1;fontSize=20;rotation=0;" vertex="1" parent="WIyWlLk6GJQsqaUBKTNV-1">
          <mxGeometry x="1891.5" y="445" width="40" height="150" as="geometry" />
        </mxCell>
        <mxCell id="Zg1x8N40QmGfaq8mfe-Y-90" value="探针钓鱼" style="rounded=1;whiteSpace=wrap;html=1;fontSize=20;rotation=0;" vertex="1" parent="WIyWlLk6GJQsqaUBKTNV-1">
          <mxGeometry x="1952.5" y="445" width="40" height="150" as="geometry" />
        </mxCell>
        <mxCell id="Zg1x8N40QmGfaq8mfe-Y-92" style="edgeStyle=orthogonalEdgeStyle;rounded=0;orthogonalLoop=1;jettySize=auto;html=1;entryX=0.5;entryY=0;entryDx=0;entryDy=0;fontSize=18;exitX=0.5;exitY=1;exitDx=0;exitDy=0;" edge="1" parent="WIyWlLk6GJQsqaUBKTNV-1" source="Zg1x8N40QmGfaq8mfe-Y-97" target="Zg1x8N40QmGfaq8mfe-Y-99">
          <mxGeometry relative="1" as="geometry" />
        </mxCell>
        <mxCell id="Zg1x8N40QmGfaq8mfe-Y-93" style="edgeStyle=orthogonalEdgeStyle;rounded=0;orthogonalLoop=1;jettySize=auto;html=1;entryX=0.5;entryY=0;entryDx=0;entryDy=0;fontSize=18;exitX=0.5;exitY=1;exitDx=0;exitDy=0;" edge="1" parent="WIyWlLk6GJQsqaUBKTNV-1" source="Zg1x8N40QmGfaq8mfe-Y-97" target="Zg1x8N40QmGfaq8mfe-Y-101">
          <mxGeometry relative="1" as="geometry" />
        </mxCell>
        <mxCell id="Zg1x8N40QmGfaq8mfe-Y-94" style="edgeStyle=orthogonalEdgeStyle;rounded=0;orthogonalLoop=1;jettySize=auto;html=1;fontSize=18;exitX=0.5;exitY=1;exitDx=0;exitDy=0;" edge="1" parent="WIyWlLk6GJQsqaUBKTNV-1" source="Zg1x8N40QmGfaq8mfe-Y-97" target="Zg1x8N40QmGfaq8mfe-Y-100">
          <mxGeometry relative="1" as="geometry" />
        </mxCell>
        <mxCell id="Zg1x8N40QmGfaq8mfe-Y-95" style="edgeStyle=orthogonalEdgeStyle;rounded=0;orthogonalLoop=1;jettySize=auto;html=1;entryX=0.5;entryY=0;entryDx=0;entryDy=0;fontSize=18;exitX=0.5;exitY=1;exitDx=0;exitDy=0;" edge="1" parent="WIyWlLk6GJQsqaUBKTNV-1" source="Zg1x8N40QmGfaq8mfe-Y-97" target="Zg1x8N40QmGfaq8mfe-Y-98">
          <mxGeometry relative="1" as="geometry" />
        </mxCell>
        <mxCell id="Zg1x8N40QmGfaq8mfe-Y-96" style="edgeStyle=orthogonalEdgeStyle;rounded=0;orthogonalLoop=1;jettySize=auto;html=1;entryX=0.5;entryY=0;entryDx=0;entryDy=0;fontSize=15;exitX=0.5;exitY=1;exitDx=0;exitDy=0;" edge="1" parent="WIyWlLk6GJQsqaUBKTNV-1" source="Zg1x8N40QmGfaq8mfe-Y-97" target="Zg1x8N40QmGfaq8mfe-Y-102">
          <mxGeometry relative="1" as="geometry" />
        </mxCell>
        <mxCell id="Zg1x8N40QmGfaq8mfe-Y-97" value="&lt;font style=&quot;font-size: 18px&quot;&gt;Web蜜罐溯源系统&lt;/font&gt;" style="rounded=1;whiteSpace=wrap;html=1;" vertex="1" parent="WIyWlLk6GJQsqaUBKTNV-1">
          <mxGeometry x="1302" y="992" width="164" height="58" as="geometry" />
        </mxCell>
        <mxCell id="Zg1x8N40QmGfaq8mfe-Y-98" value="用户管理模块" style="rounded=1;whiteSpace=wrap;html=1;fontSize=20;" vertex="1" parent="WIyWlLk6GJQsqaUBKTNV-1">
          <mxGeometry x="998" y="1150" width="130" height="50" as="geometry" />
        </mxCell>
        <mxCell id="Zg1x8N40QmGfaq8mfe-Y-99" value="接口授权模块" style="rounded=1;whiteSpace=wrap;html=1;fontSize=20;" vertex="1" parent="WIyWlLk6GJQsqaUBKTNV-1">
          <mxGeometry x="1319" y="1150" width="130" height="50" as="geometry" />
        </mxCell>
        <mxCell id="Zg1x8N40QmGfaq8mfe-Y-100" value="探针管理模块" style="rounded=1;whiteSpace=wrap;html=1;fontSize=20;" vertex="1" parent="WIyWlLk6GJQsqaUBKTNV-1">
          <mxGeometry x="1167" y="1150" width="130" height="50" as="geometry" />
        </mxCell>
        <mxCell id="Zg1x8N40QmGfaq8mfe-Y-101" value="溯源模块" style="rounded=1;whiteSpace=wrap;html=1;fontSize=20;" vertex="1" parent="WIyWlLk6GJQsqaUBKTNV-1">
          <mxGeometry x="1632" y="1150" width="130" height="50" as="geometry" />
        </mxCell>
        <mxCell id="Zg1x8N40QmGfaq8mfe-Y-102" value="钓鱼模块" style="rounded=1;whiteSpace=wrap;html=1;fontSize=20;" vertex="1" parent="WIyWlLk6GJQsqaUBKTNV-1">
          <mxGeometry x="1477" y="1150" width="130" height="50" as="geometry" />
        </mxCell>
        <mxCell id="Zg1x8N40QmGfaq8mfe-Y-110" style="edgeStyle=orthogonalEdgeStyle;curved=0;rounded=1;sketch=0;orthogonalLoop=1;jettySize=auto;html=1;" edge="1" parent="WIyWlLk6GJQsqaUBKTNV-1" source="Zg1x8N40QmGfaq8mfe-Y-104" target="Zg1x8N40QmGfaq8mfe-Y-109">
          <mxGeometry relative="1" as="geometry" />
        </mxCell>
        <mxCell id="Zg1x8N40QmGfaq8mfe-Y-104" value="Web探针钓鱼" style="rounded=1;whiteSpace=wrap;html=1;fontSize=20;" vertex="1" parent="WIyWlLk6GJQsqaUBKTNV-1">
          <mxGeometry x="1897" y="986" width="130" height="50" as="geometry" />
        </mxCell>
        <mxCell id="Zg1x8N40QmGfaq8mfe-Y-129" style="edgeStyle=orthogonalEdgeStyle;curved=0;rounded=1;sketch=0;orthogonalLoop=1;jettySize=auto;html=1;fontSize=20;entryX=0;entryY=0.5;entryDx=0;entryDy=0;" edge="1" parent="WIyWlLk6GJQsqaUBKTNV-1" source="Zg1x8N40QmGfaq8mfe-Y-105" target="Zg1x8N40QmGfaq8mfe-Y-121">
          <mxGeometry relative="1" as="geometry">
            <mxPoint x="2478" y="774" as="targetPoint" />
          </mxGeometry>
        </mxCell>
        <mxCell id="Zg1x8N40QmGfaq8mfe-Y-130" style="edgeStyle=orthogonalEdgeStyle;curved=0;rounded=1;sketch=0;orthogonalLoop=1;jettySize=auto;html=1;entryX=0;entryY=0.5;entryDx=0;entryDy=0;fontSize=20;" edge="1" parent="WIyWlLk6GJQsqaUBKTNV-1" source="Zg1x8N40QmGfaq8mfe-Y-105" target="Zg1x8N40QmGfaq8mfe-Y-122">
          <mxGeometry relative="1" as="geometry" />
        </mxCell>
        <mxCell id="Zg1x8N40QmGfaq8mfe-Y-131" style="edgeStyle=orthogonalEdgeStyle;curved=0;rounded=1;sketch=0;orthogonalLoop=1;jettySize=auto;html=1;fontSize=20;" edge="1" parent="WIyWlLk6GJQsqaUBKTNV-1" source="Zg1x8N40QmGfaq8mfe-Y-105" target="Zg1x8N40QmGfaq8mfe-Y-123">
          <mxGeometry relative="1" as="geometry" />
        </mxCell>
        <mxCell id="Zg1x8N40QmGfaq8mfe-Y-105" value="网络地址信息" style="rounded=0;whiteSpace=wrap;html=1;sketch=0;fontSize=20;" vertex="1" parent="WIyWlLk6GJQsqaUBKTNV-1">
          <mxGeometry x="2294" y="809.5" width="134" height="60" as="geometry" />
        </mxCell>
        <mxCell id="Zg1x8N40QmGfaq8mfe-Y-132" style="edgeStyle=orthogonalEdgeStyle;curved=0;rounded=1;sketch=0;orthogonalLoop=1;jettySize=auto;html=1;fontSize=20;entryX=0;entryY=0.5;entryDx=0;entryDy=0;" edge="1" parent="WIyWlLk6GJQsqaUBKTNV-1" source="Zg1x8N40QmGfaq8mfe-Y-106" target="Zg1x8N40QmGfaq8mfe-Y-124">
          <mxGeometry relative="1" as="geometry" />
        </mxCell>
        <mxCell id="Zg1x8N40QmGfaq8mfe-Y-133" style="edgeStyle=orthogonalEdgeStyle;curved=0;rounded=1;sketch=0;orthogonalLoop=1;jettySize=auto;html=1;entryX=0;entryY=0.5;entryDx=0;entryDy=0;fontSize=20;" edge="1" parent="WIyWlLk6GJQsqaUBKTNV-1" source="Zg1x8N40QmGfaq8mfe-Y-106" target="Zg1x8N40QmGfaq8mfe-Y-125">
          <mxGeometry relative="1" as="geometry" />
        </mxCell>
        <mxCell id="Zg1x8N40QmGfaq8mfe-Y-106" value="社交网站信息" style="rounded=0;whiteSpace=wrap;html=1;sketch=0;fontSize=20;" vertex="1" parent="WIyWlLk6GJQsqaUBKTNV-1">
          <mxGeometry x="2294" y="926" width="134" height="60" as="geometry" />
        </mxCell>
        <mxCell id="Zg1x8N40QmGfaq8mfe-Y-134" style="edgeStyle=orthogonalEdgeStyle;curved=0;rounded=1;sketch=0;orthogonalLoop=1;jettySize=auto;html=1;entryX=0;entryY=0.5;entryDx=0;entryDy=0;fontSize=20;" edge="1" parent="WIyWlLk6GJQsqaUBKTNV-1" source="Zg1x8N40QmGfaq8mfe-Y-107" target="Zg1x8N40QmGfaq8mfe-Y-127">
          <mxGeometry relative="1" as="geometry" />
        </mxCell>
        <mxCell id="Zg1x8N40QmGfaq8mfe-Y-107" value="娱乐网站信息" style="rounded=0;whiteSpace=wrap;html=1;sketch=0;fontSize=20;" vertex="1" parent="WIyWlLk6GJQsqaUBKTNV-1">
          <mxGeometry x="2294" y="1042" width="133" height="60" as="geometry" />
        </mxCell>
        <mxCell id="Zg1x8N40QmGfaq8mfe-Y-137" style="edgeStyle=orthogonalEdgeStyle;curved=0;rounded=1;sketch=0;orthogonalLoop=1;jettySize=auto;html=1;entryX=0;entryY=0.5;entryDx=0;entryDy=0;fontSize=20;" edge="1" parent="WIyWlLk6GJQsqaUBKTNV-1" source="Zg1x8N40QmGfaq8mfe-Y-108" target="Zg1x8N40QmGfaq8mfe-Y-128">
          <mxGeometry relative="1" as="geometry" />
        </mxCell>
        <mxCell id="Zg1x8N40QmGfaq8mfe-Y-108" value="电商网站信息" style="rounded=0;whiteSpace=wrap;html=1;sketch=0;fontSize=20;" vertex="1" parent="WIyWlLk6GJQsqaUBKTNV-1">
          <mxGeometry x="2294" y="1145" width="134" height="60" as="geometry" />
        </mxCell>
        <mxCell id="Zg1x8N40QmGfaq8mfe-Y-111" style="edgeStyle=orthogonalEdgeStyle;curved=0;rounded=1;sketch=0;orthogonalLoop=1;jettySize=auto;html=1;entryX=0;entryY=0.5;entryDx=0;entryDy=0;fontSize=20;" edge="1" parent="WIyWlLk6GJQsqaUBKTNV-1" source="Zg1x8N40QmGfaq8mfe-Y-109" target="Zg1x8N40QmGfaq8mfe-Y-105">
          <mxGeometry relative="1" as="geometry" />
        </mxCell>
        <mxCell id="Zg1x8N40QmGfaq8mfe-Y-112" style="edgeStyle=orthogonalEdgeStyle;curved=0;rounded=1;sketch=0;orthogonalLoop=1;jettySize=auto;html=1;entryX=0;entryY=0.5;entryDx=0;entryDy=0;fontSize=20;" edge="1" parent="WIyWlLk6GJQsqaUBKTNV-1" source="Zg1x8N40QmGfaq8mfe-Y-109" target="Zg1x8N40QmGfaq8mfe-Y-106">
          <mxGeometry relative="1" as="geometry" />
        </mxCell>
        <mxCell id="Zg1x8N40QmGfaq8mfe-Y-113" style="edgeStyle=orthogonalEdgeStyle;curved=0;rounded=1;sketch=0;orthogonalLoop=1;jettySize=auto;html=1;entryX=0;entryY=0.5;entryDx=0;entryDy=0;fontSize=20;" edge="1" parent="WIyWlLk6GJQsqaUBKTNV-1" source="Zg1x8N40QmGfaq8mfe-Y-109" target="Zg1x8N40QmGfaq8mfe-Y-107">
          <mxGeometry relative="1" as="geometry" />
        </mxCell>
        <mxCell id="Zg1x8N40QmGfaq8mfe-Y-114" style="edgeStyle=orthogonalEdgeStyle;curved=0;rounded=1;sketch=0;orthogonalLoop=1;jettySize=auto;html=1;entryX=0;entryY=0.5;entryDx=0;entryDy=0;fontSize=20;" edge="1" parent="WIyWlLk6GJQsqaUBKTNV-1" source="Zg1x8N40QmGfaq8mfe-Y-109" target="Zg1x8N40QmGfaq8mfe-Y-108">
          <mxGeometry relative="1" as="geometry" />
        </mxCell>
        <mxCell id="Zg1x8N40QmGfaq8mfe-Y-109" value="网络身份" style="rounded=1;whiteSpace=wrap;html=1;sketch=0;fontSize=20;" vertex="1" parent="WIyWlLk6GJQsqaUBKTNV-1">
          <mxGeometry x="2101" y="981" width="120" height="60" as="geometry" />
        </mxCell>
        <mxCell id="Zg1x8N40QmGfaq8mfe-Y-115" value="省市区域" style="ellipse;whiteSpace=wrap;html=1;rounded=0;sketch=0;fontSize=20;" vertex="1" parent="WIyWlLk6GJQsqaUBKTNV-1">
          <mxGeometry x="3131" y="735" width="120" height="80" as="geometry" />
        </mxCell>
        <mxCell id="Zg1x8N40QmGfaq8mfe-Y-119" value="IP地址" style="ellipse;whiteSpace=wrap;html=1;rounded=0;sketch=0;fontSize=20;" vertex="1" parent="WIyWlLk6GJQsqaUBKTNV-1">
          <mxGeometry x="2835" y="520" width="120" height="80" as="geometry" />
        </mxCell>
        <mxCell id="Zg1x8N40QmGfaq8mfe-Y-120" value="网络提供商" style="ellipse;whiteSpace=wrap;html=1;rounded=0;sketch=0;fontSize=20;" vertex="1" parent="WIyWlLk6GJQsqaUBKTNV-1">
          <mxGeometry x="3131" y="627" width="120" height="80" as="geometry" />
        </mxCell>
        <mxCell id="Zg1x8N40QmGfaq8mfe-Y-121" value="IP地址" style="rounded=1;whiteSpace=wrap;html=1;fontSize=20;" vertex="1" parent="WIyWlLk6GJQsqaUBKTNV-1">
          <mxGeometry x="2707" y="721" width="130" height="35" as="geometry" />
        </mxCell>
        <mxCell id="Zg1x8N40QmGfaq8mfe-Y-122" value="网络提供商" style="rounded=1;whiteSpace=wrap;html=1;fontSize=20;" vertex="1" parent="WIyWlLk6GJQsqaUBKTNV-1">
          <mxGeometry x="2707" y="772" width="130" height="35" as="geometry" />
        </mxCell>
        <mxCell id="Zg1x8N40QmGfaq8mfe-Y-123" value="省市区域" style="rounded=1;whiteSpace=wrap;html=1;fontSize=20;" vertex="1" parent="WIyWlLk6GJQsqaUBKTNV-1">
          <mxGeometry x="2707" y="822" width="130" height="35" as="geometry" />
        </mxCell>
        <mxCell id="Zg1x8N40QmGfaq8mfe-Y-140" style="edgeStyle=orthogonalEdgeStyle;curved=0;rounded=1;sketch=0;orthogonalLoop=1;jettySize=auto;html=1;entryX=0;entryY=0.5;entryDx=0;entryDy=0;fontSize=20;" edge="1" parent="WIyWlLk6GJQsqaUBKTNV-1" source="Zg1x8N40QmGfaq8mfe-Y-124" target="Zg1x8N40QmGfaq8mfe-Y-138">
          <mxGeometry relative="1" as="geometry" />
        </mxCell>
        <mxCell id="Zg1x8N40QmGfaq8mfe-Y-141" style="edgeStyle=orthogonalEdgeStyle;curved=0;rounded=1;sketch=0;orthogonalLoop=1;jettySize=auto;html=1;fontSize=20;" edge="1" parent="WIyWlLk6GJQsqaUBKTNV-1" source="Zg1x8N40QmGfaq8mfe-Y-124" target="Zg1x8N40QmGfaq8mfe-Y-139">
          <mxGeometry relative="1" as="geometry" />
        </mxCell>
        <mxCell id="Zg1x8N40QmGfaq8mfe-Y-124" value="QQ信息" style="rounded=1;whiteSpace=wrap;html=1;fontSize=20;" vertex="1" parent="WIyWlLk6GJQsqaUBKTNV-1">
          <mxGeometry x="2533" y="894.5" width="130" height="40" as="geometry" />
        </mxCell>
        <mxCell id="Zg1x8N40QmGfaq8mfe-Y-143" style="edgeStyle=orthogonalEdgeStyle;curved=0;rounded=1;sketch=0;orthogonalLoop=1;jettySize=auto;html=1;fontSize=20;" edge="1" parent="WIyWlLk6GJQsqaUBKTNV-1" source="Zg1x8N40QmGfaq8mfe-Y-125" target="Zg1x8N40QmGfaq8mfe-Y-142">
          <mxGeometry relative="1" as="geometry" />
        </mxCell>
        <mxCell id="Zg1x8N40QmGfaq8mfe-Y-125" value="微博信息" style="rounded=1;whiteSpace=wrap;html=1;fontSize=20;" vertex="1" parent="WIyWlLk6GJQsqaUBKTNV-1">
          <mxGeometry x="2533" y="977.5" width="130" height="40" as="geometry" />
        </mxCell>
        <mxCell id="Zg1x8N40QmGfaq8mfe-Y-145" style="edgeStyle=orthogonalEdgeStyle;curved=0;rounded=1;sketch=0;orthogonalLoop=1;jettySize=auto;html=1;fontSize=20;" edge="1" parent="WIyWlLk6GJQsqaUBKTNV-1" source="Zg1x8N40QmGfaq8mfe-Y-127" target="Zg1x8N40QmGfaq8mfe-Y-144">
          <mxGeometry relative="1" as="geometry" />
        </mxCell>
        <mxCell id="Zg1x8N40QmGfaq8mfe-Y-127" value="爱奇艺信息" style="rounded=1;whiteSpace=wrap;html=1;fontSize=20;" vertex="1" parent="WIyWlLk6GJQsqaUBKTNV-1">
          <mxGeometry x="2533" y="1052" width="130" height="40" as="geometry" />
        </mxCell>
        <mxCell id="Zg1x8N40QmGfaq8mfe-Y-148" style="edgeStyle=orthogonalEdgeStyle;curved=0;rounded=1;sketch=0;orthogonalLoop=1;jettySize=auto;html=1;fontSize=20;" edge="1" parent="WIyWlLk6GJQsqaUBKTNV-1" source="Zg1x8N40QmGfaq8mfe-Y-128" target="Zg1x8N40QmGfaq8mfe-Y-147">
          <mxGeometry relative="1" as="geometry" />
        </mxCell>
        <mxCell id="Zg1x8N40QmGfaq8mfe-Y-128" value="苏宁易购信息" style="rounded=1;whiteSpace=wrap;html=1;fontSize=20;" vertex="1" parent="WIyWlLk6GJQsqaUBKTNV-1">
          <mxGeometry x="2533" y="1155" width="130" height="40" as="geometry" />
        </mxCell>
        <mxCell id="Zg1x8N40QmGfaq8mfe-Y-138" value="QQ号" style="rounded=1;whiteSpace=wrap;html=1;fontSize=20;" vertex="1" parent="WIyWlLk6GJQsqaUBKTNV-1">
          <mxGeometry x="2707" y="872.5" width="130" height="30" as="geometry" />
        </mxCell>
        <mxCell id="Zg1x8N40QmGfaq8mfe-Y-139" value="QQ头像" style="rounded=1;whiteSpace=wrap;html=1;fontSize=20;" vertex="1" parent="WIyWlLk6GJQsqaUBKTNV-1">
          <mxGeometry x="2707" y="925.5" width="130" height="30" as="geometry" />
        </mxCell>
        <mxCell id="Zg1x8N40QmGfaq8mfe-Y-142" value="账号名" style="rounded=1;whiteSpace=wrap;html=1;fontSize=20;" vertex="1" parent="WIyWlLk6GJQsqaUBKTNV-1">
          <mxGeometry x="2707" y="982.5" width="130" height="30" as="geometry" />
        </mxCell>
        <mxCell id="Zg1x8N40QmGfaq8mfe-Y-144" value="账号名" style="rounded=1;whiteSpace=wrap;html=1;fontSize=20;" vertex="1" parent="WIyWlLk6GJQsqaUBKTNV-1">
          <mxGeometry x="2707" y="1057" width="130" height="30" as="geometry" />
        </mxCell>
        <mxCell id="Zg1x8N40QmGfaq8mfe-Y-147" value="账号名" style="rounded=1;whiteSpace=wrap;html=1;fontSize=20;" vertex="1" parent="WIyWlLk6GJQsqaUBKTNV-1">
          <mxGeometry x="2707" y="1160" width="130" height="30" as="geometry" />
        </mxCell>
        <mxCell id="Zg1x8N40QmGfaq8mfe-Y-149" style="edgeStyle=orthogonalEdgeStyle;curved=0;rounded=1;sketch=0;orthogonalLoop=1;jettySize=auto;html=1;" edge="1" parent="WIyWlLk6GJQsqaUBKTNV-1" source="Zg1x8N40QmGfaq8mfe-Y-150" target="Zg1x8N40QmGfaq8mfe-Y-159">
          <mxGeometry relative="1" as="geometry" />
        </mxCell>
        <mxCell id="Zg1x8N40QmGfaq8mfe-Y-150" value="Web探针钓鱼" style="rounded=1;whiteSpace=wrap;html=1;fontSize=20;" vertex="1" parent="WIyWlLk6GJQsqaUBKTNV-1">
          <mxGeometry x="1726" y="1548.5" width="130" height="50" as="geometry" />
        </mxCell>
        <mxCell id="Zg1x8N40QmGfaq8mfe-Y-151" value="网络地址信息" style="rounded=0;whiteSpace=wrap;html=1;sketch=0;fontSize=20;" vertex="1" parent="WIyWlLk6GJQsqaUBKTNV-1">
          <mxGeometry x="2123" y="1372" width="134" height="60" as="geometry" />
        </mxCell>
        <mxCell id="Zg1x8N40QmGfaq8mfe-Y-152" value="社交网站信息" style="rounded=0;whiteSpace=wrap;html=1;sketch=0;fontSize=20;" vertex="1" parent="WIyWlLk6GJQsqaUBKTNV-1">
          <mxGeometry x="2123" y="1488.5" width="134" height="60" as="geometry" />
        </mxCell>
        <mxCell id="Zg1x8N40QmGfaq8mfe-Y-153" value="娱乐网站信息" style="rounded=0;whiteSpace=wrap;html=1;sketch=0;fontSize=20;" vertex="1" parent="WIyWlLk6GJQsqaUBKTNV-1">
          <mxGeometry x="2123" y="1604.5" width="133" height="60" as="geometry" />
        </mxCell>
        <mxCell id="Zg1x8N40QmGfaq8mfe-Y-154" value="电商网站信息" style="rounded=0;whiteSpace=wrap;html=1;sketch=0;fontSize=20;" vertex="1" parent="WIyWlLk6GJQsqaUBKTNV-1">
          <mxGeometry x="2123" y="1707.5" width="134" height="60" as="geometry" />
        </mxCell>
        <mxCell id="Zg1x8N40QmGfaq8mfe-Y-155" style="edgeStyle=orthogonalEdgeStyle;curved=0;rounded=1;sketch=0;orthogonalLoop=1;jettySize=auto;html=1;entryX=0;entryY=0.5;entryDx=0;entryDy=0;fontSize=20;" edge="1" parent="WIyWlLk6GJQsqaUBKTNV-1" source="Zg1x8N40QmGfaq8mfe-Y-159" target="Zg1x8N40QmGfaq8mfe-Y-151">
          <mxGeometry relative="1" as="geometry" />
        </mxCell>
        <mxCell id="Zg1x8N40QmGfaq8mfe-Y-156" style="edgeStyle=orthogonalEdgeStyle;curved=0;rounded=1;sketch=0;orthogonalLoop=1;jettySize=auto;html=1;entryX=0;entryY=0.5;entryDx=0;entryDy=0;fontSize=20;" edge="1" parent="WIyWlLk6GJQsqaUBKTNV-1" source="Zg1x8N40QmGfaq8mfe-Y-159" target="Zg1x8N40QmGfaq8mfe-Y-152">
          <mxGeometry relative="1" as="geometry" />
        </mxCell>
        <mxCell id="Zg1x8N40QmGfaq8mfe-Y-157" style="edgeStyle=orthogonalEdgeStyle;curved=0;rounded=1;sketch=0;orthogonalLoop=1;jettySize=auto;html=1;entryX=0;entryY=0.5;entryDx=0;entryDy=0;fontSize=20;" edge="1" parent="WIyWlLk6GJQsqaUBKTNV-1" source="Zg1x8N40QmGfaq8mfe-Y-159" target="Zg1x8N40QmGfaq8mfe-Y-153">
          <mxGeometry relative="1" as="geometry" />
        </mxCell>
        <mxCell id="Zg1x8N40QmGfaq8mfe-Y-158" style="edgeStyle=orthogonalEdgeStyle;curved=0;rounded=1;sketch=0;orthogonalLoop=1;jettySize=auto;html=1;entryX=0;entryY=0.5;entryDx=0;entryDy=0;fontSize=20;" edge="1" parent="WIyWlLk6GJQsqaUBKTNV-1" source="Zg1x8N40QmGfaq8mfe-Y-159" target="Zg1x8N40QmGfaq8mfe-Y-154">
          <mxGeometry relative="1" as="geometry" />
        </mxCell>
        <mxCell id="Zg1x8N40QmGfaq8mfe-Y-159" value="网络身份" style="rounded=1;whiteSpace=wrap;html=1;sketch=0;fontSize=20;" vertex="1" parent="WIyWlLk6GJQsqaUBKTNV-1">
          <mxGeometry x="1930" y="1543.5" width="120" height="60" as="geometry" />
        </mxCell>
        <mxCell id="Zg1x8N40QmGfaq8mfe-Y-173" style="edgeStyle=orthogonalEdgeStyle;curved=0;rounded=1;sketch=0;orthogonalLoop=1;jettySize=auto;html=1;fontSize=20;" edge="1" parent="WIyWlLk6GJQsqaUBKTNV-1" source="Zg1x8N40QmGfaq8mfe-Y-160" target="Zg1x8N40QmGfaq8mfe-Y-172">
          <mxGeometry relative="1" as="geometry" />
        </mxCell>
        <mxCell id="Zg1x8N40QmGfaq8mfe-Y-160" value="蜜标钓鱼" style="rounded=1;whiteSpace=wrap;html=1;fontSize=20;" vertex="1" parent="WIyWlLk6GJQsqaUBKTNV-1">
          <mxGeometry x="1757" y="2049" width="130" height="50" as="geometry" />
        </mxCell>
        <mxCell id="Zg1x8N40QmGfaq8mfe-Y-167" style="edgeStyle=orthogonalEdgeStyle;curved=0;rounded=1;sketch=0;orthogonalLoop=1;jettySize=auto;html=1;entryX=0;entryY=0.5;entryDx=0;entryDy=0;fontSize=20;exitX=1;exitY=0.5;exitDx=0;exitDy=0;" edge="1" parent="WIyWlLk6GJQsqaUBKTNV-1" source="Zg1x8N40QmGfaq8mfe-Y-172" target="Zg1x8N40QmGfaq8mfe-Y-163">
          <mxGeometry relative="1" as="geometry">
            <mxPoint x="2071" y="2071" as="sourcePoint" />
          </mxGeometry>
        </mxCell>
        <mxCell id="Zg1x8N40QmGfaq8mfe-Y-168" style="edgeStyle=orthogonalEdgeStyle;curved=0;rounded=1;sketch=0;orthogonalLoop=1;jettySize=auto;html=1;fontSize=20;exitX=1;exitY=0.5;exitDx=0;exitDy=0;" edge="1" parent="WIyWlLk6GJQsqaUBKTNV-1" source="Zg1x8N40QmGfaq8mfe-Y-172" target="Zg1x8N40QmGfaq8mfe-Y-164">
          <mxGeometry relative="1" as="geometry">
            <mxPoint x="2071" y="2071" as="sourcePoint" />
          </mxGeometry>
        </mxCell>
        <mxCell id="Zg1x8N40QmGfaq8mfe-Y-169" style="edgeStyle=orthogonalEdgeStyle;curved=0;rounded=1;sketch=0;orthogonalLoop=1;jettySize=auto;html=1;entryX=0;entryY=0.5;entryDx=0;entryDy=0;fontSize=20;exitX=1;exitY=0.5;exitDx=0;exitDy=0;" edge="1" parent="WIyWlLk6GJQsqaUBKTNV-1" source="Zg1x8N40QmGfaq8mfe-Y-172" target="Zg1x8N40QmGfaq8mfe-Y-165">
          <mxGeometry relative="1" as="geometry">
            <mxPoint x="2071" y="2071" as="sourcePoint" />
          </mxGeometry>
        </mxCell>
        <mxCell id="Zg1x8N40QmGfaq8mfe-Y-170" style="edgeStyle=orthogonalEdgeStyle;curved=0;rounded=1;sketch=0;orthogonalLoop=1;jettySize=auto;html=1;entryX=0;entryY=0.5;entryDx=0;entryDy=0;fontSize=20;exitX=1;exitY=0.5;exitDx=0;exitDy=0;" edge="1" parent="WIyWlLk6GJQsqaUBKTNV-1" source="Zg1x8N40QmGfaq8mfe-Y-172" target="Zg1x8N40QmGfaq8mfe-Y-166">
          <mxGeometry relative="1" as="geometry">
            <mxPoint x="2071" y="2071" as="sourcePoint" />
          </mxGeometry>
        </mxCell>
        <mxCell id="Zg1x8N40QmGfaq8mfe-Y-163" value="网络信息" style="rounded=0;whiteSpace=wrap;html=1;sketch=0;fontSize=20;" vertex="1" parent="WIyWlLk6GJQsqaUBKTNV-1">
          <mxGeometry x="2125" y="1897" width="134" height="60" as="geometry" />
        </mxCell>
        <mxCell id="Zg1x8N40QmGfaq8mfe-Y-164" value="硬件信息" style="rounded=0;whiteSpace=wrap;html=1;sketch=0;fontSize=20;" vertex="1" parent="WIyWlLk6GJQsqaUBKTNV-1">
          <mxGeometry x="2125" y="1996" width="134" height="60" as="geometry" />
        </mxCell>
        <mxCell id="Zg1x8N40QmGfaq8mfe-Y-165" value="软件信息" style="rounded=0;whiteSpace=wrap;html=1;sketch=0;fontSize=20;" vertex="1" parent="WIyWlLk6GJQsqaUBKTNV-1">
          <mxGeometry x="2125" y="2095" width="134" height="60" as="geometry" />
        </mxCell>
        <mxCell id="Zg1x8N40QmGfaq8mfe-Y-166" value="个人信息" style="rounded=0;whiteSpace=wrap;html=1;sketch=0;fontSize=20;" vertex="1" parent="WIyWlLk6GJQsqaUBKTNV-1">
          <mxGeometry x="2125" y="2194" width="134" height="60" as="geometry" />
        </mxCell>
        <mxCell id="Zg1x8N40QmGfaq8mfe-Y-172" value="主机信息" style="rounded=1;whiteSpace=wrap;html=1;sketch=0;fontSize=20;" vertex="1" parent="WIyWlLk6GJQsqaUBKTNV-1">
          <mxGeometry x="1925.5" y="2044" width="120" height="60" as="geometry" />
        </mxCell>
      </root>
    </mxGraphModel>
  </diagram>
</mxfile>
